<svg width="1232" height="433" viewBox="0 0 1232 433" fill="none" xmlns="http://www.w3.org/2000/svg">
<path d="M1118.44 70.0876C1120.34 69.91 1155.59 71.5325 1155.62 71.557C1159.93 75.2982 1186.57 152.13 1189.97 162.454C1194.9 177.431 1198.16 186.211 1202.05 197.6L1223.84 260.643C1225.71 266.123 1229.26 272.283 1230.69 277.604C1234.22 290.744 1221.87 287.352 1215.34 283.935C1214.2 284.113 1209.49 284.768 1208.68 284.59C1201.88 283.102 1177.17 281.21 1172.66 279.232C1171.29 276.875 1167.81 263.178 1166.56 259.388C1161.23 243.125 1156.59 226.476 1151.26 210.22C1147.34 210.183 1143.32 210.587 1139.4 210.226C1128.34 209.203 1117.65 210.293 1106.6 210.82C1104.62 217.537 1097.76 249.156 1095.84 252.401C1088.35 253.852 1064.73 252.824 1056.09 254.318C1055.52 254.03 1054.95 253.742 1054.37 253.454C1052.91 251.66 1052.95 251.317 1052.31 248.985L1052.14 248.311C1049.47 247.987 1047.29 250.411 1046.53 250.295C1042.18 249.628 1014.71 251.171 1013.01 249.297C1005.7 241.276 988.145 193.277 981.183 188.556C974.705 188.213 976.517 214.328 976.83 219.374C977.172 225.417 976.842 231.326 976.762 237.363C976.713 241.465 978.483 245.231 976.425 248.972C975.783 249.493 974.497 250.509 973.572 250.454C962.967 249.793 952.607 250.27 942.008 250.148C940.318 250.123 938.903 249.499 937.734 248.746C935.132 244.356 937.465 241.655 937.342 237.259C937.091 228.087 937.789 219.08 937.654 209.907C937.397 192.867 937.416 175.728 937.826 158.694C938.818 137.086 935.83 111.577 937.899 90.4099C938.524 89.4425 939.081 88.8791 940.122 88.3954C945.902 85.7013 993.399 85.6768 1003.17 86.1789C1009.72 86.5095 1017.96 86.7912 1023.99 89.3445C1033.33 93.2939 1043.27 103.893 1046.96 113.243C1051.45 124.607 1050.9 151.071 1045.72 162.099C1040.76 172.661 1033.49 177.963 1022.72 181.931C1025.53 188.354 1028.63 193.436 1031.59 199.565L1052.79 244.319C1054.11 239.935 1055.05 235.71 1056.09 231.246C1067.34 183.107 1079.78 135.194 1091.91 87.2688C1093.11 82.5295 1093.4 78.1822 1095.13 73.4675C1099.03 69.2242 1106.34 71.0305 1111.48 71.1284C1113.54 71.1713 1116.38 70.5223 1118.44 70.0876Z" fill="#3F4927"/>
<path d="M978.569 123.548C991.568 122.109 1008.98 120.719 1006.91 139.639C1006.33 144.917 1005.04 147.152 1000.91 150.293C995.97 153.147 983.051 153.735 977.081 153.832C977.032 146.234 976.793 131.581 977.491 124.417L978.569 123.548Z" fill="#F6F0DF"/>
<path d="M1126.67 126.677C1129.12 129.432 1141.3 168.099 1143.19 173.781C1138.48 174.02 1134.53 174.375 1129.83 173.775C1123.86 172.734 1119.27 175.606 1114.69 173.959C1113.66 170.61 1124.85 132.983 1126.67 126.677Z" fill="#F6F0DF"/>
<path d="M1149.78 103.477C1152.96 106.238 1158.49 125.14 1160.08 130.161C1156.93 128.104 1150.64 108.032 1149.78 103.477Z" fill="#818661"/>
<path d="M1186.87 209.901C1189.94 212.485 1192.94 224.437 1193.8 228.589C1191.11 226.415 1187.67 213.655 1186.87 209.901Z" fill="#818661"/>
<path d="M1171.54 225.08C1174.92 227.174 1177.67 239.286 1178.54 243.382C1175.63 240.676 1172.83 229.403 1171.54 225.08Z" fill="#515939"/>
<path d="M1201.01 237.498C1203.45 239.249 1205.74 248.519 1206.83 252.04C1203.94 250.24 1201.49 240.847 1201.01 237.498Z" fill="#9EA27F"/>
<path d="M952.111 197.031C954.168 199.437 953.17 208.291 953.042 212.112C951.241 209.742 952.001 200.306 952.111 197.031Z" fill="#515939"/>
<path d="M975.409 98.3944C979.934 97.6413 986.449 97.9841 990.986 98.3637C988.684 99.8578 978.171 99.5884 975.409 98.3944Z" fill="#515939"/>
<path d="M1135.36 188.348C1136.78 188.281 1136.43 188.293 1137.85 188.593L1137.65 189.285C1134.04 190.259 1131.82 190.014 1128.15 189.91C1126.76 189.72 1127.16 189.787 1125.85 189.224C1127.72 188.477 1133.08 188.452 1135.36 188.348Z" fill="#707443"/>
<path d="M1097.83 112.637L1098.38 112.986C1098.4 115.459 1095.84 123.554 1095.02 126.426L1094.44 125.85C1094.28 122.758 1096.77 115.717 1097.83 112.637Z" fill="#818661"/>
<path d="M1091.23 147.593L1091.62 147.887C1092.07 150.563 1089.18 157.911 1088.16 160.562L1087.7 160.133C1088.23 155.963 1089.88 151.628 1091.23 147.593Z" fill="#9EA27F"/>
<path d="M1153.18 149.932C1155.72 152.375 1157.13 157.133 1157.03 160.611C1155.01 157.702 1153.31 153.496 1153.18 149.932Z" fill="#9EA27F"/>
<path d="M1108.9 107.059C1109.67 109.949 1107.09 116.782 1106.01 119.727C1105.07 116.678 1107.67 110.059 1108.9 107.059Z" fill="#9EA27F"/>
<path d="M1076.34 206.258C1076.99 208.811 1074.74 216.177 1073.98 219.153L1073.43 217.965C1073.61 214.726 1074.79 209.105 1076.34 206.258Z" fill="#707443"/>
<path d="M1164.5 139.505C1167.59 141.035 1168.12 145.903 1168.65 148.971C1166.32 147.354 1165.27 142.309 1164.5 139.505Z" fill="#818661"/>
<path d="M1008.73 198.959C1011.3 200.809 1012.89 206.08 1014.05 209.136C1011.06 207.201 1009.59 202.241 1008.73 198.959Z" fill="#515939"/>
<path d="M1032.35 126.707C1034.18 129.432 1033.54 135.984 1033.2 139.229C1031.57 136.963 1032.26 129.873 1032.35 126.707Z" fill="#707443"/>
<path d="M960.114 198.341C961.987 201.096 961.093 206.754 960.812 210.183C959.134 207.942 959.918 201.249 960.114 198.341Z" fill="#515939"/>
<path d="M948.235 120.45C949.686 122.887 948.841 129.493 948.584 132.457C947.402 128.997 947.457 124.019 948.235 120.45Z" fill="#515939"/>
<path d="M1108.36 135.874C1108.97 139.051 1106.77 143.142 1105.38 146.032C1104.73 143.099 1107.1 138.819 1108.36 135.874Z" fill="#707443"/>
<path d="M993.092 107.554C997.036 107.15 1000.23 106.422 1003.64 108.497C1000.62 109.146 996.019 108.338 993.092 107.554Z" fill="#515939"/>
<path d="M966.022 130.785L967.07 131.661C967.584 133.994 967.229 137.404 967.1 139.884C965.435 138.507 966.01 133.033 966.022 130.785Z" fill="#515939"/>
<path d="M1089.91 217.249C1090.68 219.208 1089.22 223.611 1088.32 225.49L1087.74 225.037C1087.8 222.288 1088.95 219.876 1089.91 217.249Z" fill="#707443"/>
<path d="M966.084 218.425L966.873 219.074C967.578 221.241 967.272 225.025 967.216 227.45L966.58 226.88C965.704 224.101 966.01 221.376 966.084 218.425Z" fill="#515939"/>
<path d="M985.965 166.973C987.692 166.807 991.427 166.342 992.701 167.432L991.298 167.977C988.941 167.995 985.959 168.173 983.736 167.622L985.965 166.973Z" fill="#707443"/>
<path d="M1025.38 219.037L1026.51 219.361C1028.37 221.529 1028.94 223.176 1030.11 225.735C1027.5 224.627 1026.46 221.511 1025.38 219.037Z" fill="#515939"/>
<path d="M1020.49 113.733C1022.45 114.467 1024.34 115.392 1025.01 117.431L1024.2 117.823C1022.32 117.039 1021.66 115.496 1020.49 113.733Z" fill="#515939"/>
<path d="M1164.35 172.03C1166.18 173.947 1166.97 176.635 1167.91 179.121C1164.86 177.198 1164.64 175.337 1164.35 172.03Z" fill="#707443"/>
<path d="M1138.94 197.594C1141.96 197.19 1145.01 196.682 1147.66 198.188C1144.67 198.537 1141.6 198.99 1138.94 197.594Z" fill="#515939"/>
<path d="M1097.56 170.15L1098.12 170.726C1098.36 172.747 1097.34 174.957 1096.64 176.959L1095.94 176.58C1095.53 174.877 1096.91 171.963 1097.56 170.15Z" fill="#515939"/>
<path d="M1116.65 182.831C1119.5 182.678 1121.92 182.433 1124.38 183.903C1121.69 184.105 1118.49 184.834 1116.65 182.831Z" fill="#515939"/>
<path d="M1143.98 86.1116L1145.17 86.6565C1146.71 88.3159 1146.74 89.9017 1147.19 92.1673C1145.17 90.7835 1144.77 88.4934 1143.98 86.1116Z" fill="#707443"/>
<path d="M1024.61 104.211C1027.31 105.32 1028.04 106.532 1030.01 108.779C1026.65 107.977 1026.14 107.267 1024.61 104.211Z" fill="#515939"/>
<path d="M1020.53 129.653C1022.38 130.945 1022.07 132.39 1022.19 134.539L1021.45 134.698C1020.56 132.898 1020.71 131.753 1020.53 129.653Z" fill="#515939"/>
<path d="M1001 98.8966C1004.26 98.3639 1005.01 98.7435 1007.66 100.354C1005.04 100.213 1003.07 100.335 1001 98.8966Z" fill="#515939"/>
<path d="M956.942 159.735C958.583 161.15 957.989 163.072 957.916 165.093L957.224 164.585C956.299 163.097 956.746 161.578 956.942 159.735Z" fill="#707443"/>
<path d="M952.105 190.816L952.564 190.687L953.219 191.067L952.895 193.436L952.539 193.516L951.976 193.044L952.105 190.816Z" fill="#515939"/>
<path d="M603.651 66.4199C607.101 65.8688 614.293 65.1646 615.784 69.3405C628.861 105.956 643.614 142.088 657.315 178.441L680.407 241.533C680.936 243.002 681.784 245.299 681.224 246.823C680.544 248.672 679.227 250.062 677.368 250.785C675.975 251.324 637.885 253.277 633.416 253.265C631.684 253.259 629.911 253.148 628.317 252.414C627.017 251.807 626.184 250.375 625.729 249.028C624.828 246.364 625.055 243.529 624.167 240.841C620.763 230.524 616.628 220.329 612.985 210.073C592.557 210.514 582.969 212.093 563.087 214.53C561.019 222.711 558.607 230.567 556.557 238.888C553.294 246.897 548.363 276.845 544.453 280.959C543.508 281.951 542.611 282.557 541.29 282.894C536.761 284.045 531.63 283.739 526.963 284.523C523.472 285.111 519.973 286.47 516.473 286.825C513.308 287.15 510.061 286.115 506.904 286.482C502.562 286.99 498.427 288.876 493.999 289.072C491.621 289.176 489.962 288.87 488.162 287.192C486.93 284.633 493.089 266.233 494.262 261.904C499.784 240.853 505.595 219.784 511.921 198.941C520.648 170.193 527.383 140.943 536.726 112.404C540.707 100.237 544.227 88.971 546.355 76.3024C547.618 68.7895 555.307 69.414 560.878 71.2509C576.714 65.2197 589.495 69.3528 603.651 66.4199Z" fill="#3F4927"/>
<path d="M586.098 124.166C588.888 126.885 600.999 165.889 603.239 172.685C599.151 173.432 592.887 173.873 588.371 174.51C582.966 174.712 576.793 175.281 571.323 175.649L586.098 124.166Z" fill="#F6F0DF"/>
<path d="M554.913 154.831C555.754 158.235 550.419 173.555 548.779 177.284C547.684 173.849 553.197 158.523 554.913 154.831Z" fill="#818661"/>
<path d="M530.303 201.335C530.543 201.715 530.784 202.088 531.024 202.468C530.217 207.158 527.756 214.751 526.009 219.245L525.31 218.4C525.996 214.01 528.738 205.542 530.303 201.335Z" fill="#9EA27F"/>
<path d="M518.247 235.722C518.444 239.059 514.114 252.775 511.973 255.585C511.722 252.077 516.207 239.145 518.247 235.722Z" fill="#818661"/>
<path d="M538.365 228.387L538.932 229.36C538.297 234.044 536.267 239.5 534.531 243.927L533.912 243.517C534.564 238.661 536.589 232.942 538.365 228.387Z" fill="#818661"/>
<path d="M565.499 116.139C566.915 120.119 563.304 128.03 561.545 131.906C561.182 128.906 564.445 119.409 565.499 116.139Z" fill="#818661"/>
<path d="M583.244 198.133C585.426 197.9 587.193 197.496 589.253 198.145C588.008 199.321 584.129 199.492 582.286 199.694C580.31 199.823 577.55 200.251 575.877 199.492C578.306 198.292 580.511 198.359 583.244 198.133Z" fill="#818661"/>
<path d="M633.619 212.877L634.419 212.724C636.535 216.888 638.059 221.976 640.03 226.464C636.524 224.517 635.041 217.188 633.619 212.877Z" fill="#707443"/>
<path d="M612.977 121.056C615.255 122.893 618.515 133.504 619.71 137.019C616.623 135.206 614.238 125.073 612.977 121.056Z" fill="#515939"/>
<path d="M539.4 165.779C540.724 168.595 537.674 176.145 536.312 178.882C535.147 175.851 538.036 168.693 539.4 165.779Z" fill="#818661"/>
<path d="M560.806 90.4283C561.993 93.8144 558.569 101.829 557.144 105.522C556.246 103.311 559.861 92.9817 560.806 90.4283Z" fill="#515939"/>
<path d="M596.148 106.299L597.084 106.654C599.272 109.22 600.371 115.612 601.128 119.054C599.139 117.578 597.214 109.471 596.148 106.299Z" fill="#515939"/>
<path d="M569.501 135.874C569.923 138.555 567.719 145.187 566.912 147.979L566.357 146.436C566.83 143.289 567.708 138.482 569.501 135.874Z" fill="#515939"/>
<path d="M544.994 144.979C546.017 147.936 544.279 152.051 542.787 154.641C541.648 152.228 544.007 147.403 544.994 144.979Z" fill="#818661"/>
<path d="M649.242 211.138C651.692 212.981 653.446 219.453 653.767 222.484C651.793 220.09 650.112 214.212 649.242 211.138Z" fill="#707443"/>
<path d="M597.326 186.572C600.415 186.193 604.696 185.097 606.949 187.381C603.395 187.552 601.336 187.693 597.74 187.301L597.326 186.572Z" fill="#515939"/>
<path d="M584.963 188.305C586.847 188.042 587.181 187.809 588.936 188.532C588.022 189.579 587.535 189.248 585.655 189.444C583.091 189.811 582.655 190.007 580.199 189.456C581.556 188.342 582.868 188.569 584.963 188.305Z" fill="#707443"/>
<path d="M611.638 150.998C614.184 153.208 614.882 158.082 615.204 161.303C613.577 159.429 612.11 153.508 611.638 150.998Z" fill="#515939"/>
<path d="M605.923 99.1599C608.328 101.181 609.168 105.669 609.857 108.706C607.809 107.353 606.475 101.523 605.923 99.1599Z" fill="#707443"/>
<path d="M634.412 164.511L635.156 164.303C636.503 165.632 637.47 169.844 638.088 171.889C635.862 170.132 635.548 167.591 634.412 164.511Z" fill="#515939"/>
<path d="M607.713 84.4155C610.171 86.3871 610.834 89.6018 611.469 92.6327C609.261 90.7774 608.501 87.2015 607.713 84.4155Z" fill="#515939"/>
<path d="M548.265 192.022L549.105 192.444C549.426 194.783 548.81 195.071 547.758 197.643L546.816 197.588C546.423 195.769 547.521 193.877 548.265 192.022Z" fill="#9EA27F"/>
<path d="M569.608 101.67L569.968 102.068C570.294 104.291 569.379 106.005 568.596 108.179L567.836 107.506C567.655 105.718 568.865 103.446 569.608 101.67Z" fill="#818661"/>
<path d="M528.441 256.455C529.079 258.763 528.817 259.124 528.078 261.206L527.395 261.065C526.984 259.253 527.672 258.567 528.441 256.455Z" fill="#515939"/>
<path d="M621.419 173.255C623.706 174.565 624.157 175.478 624.992 177.78C622.823 176.916 621.969 175.392 621.419 173.255Z" fill="#515939"/>
<path d="M873.35 88.5058C876.999 87.8567 893.917 89.0385 897.91 89.7549C921.238 104.842 922.775 124.246 921.526 149.197C918.997 199.804 937.054 254.673 863.97 250.362C855.765 250.491 849.231 248.874 841.183 248.544C834.435 244.448 820.208 232.244 818.551 224.248C813.27 198.782 815.563 172.085 816.009 146.277C816.171 136.866 814.862 127.154 815.73 117.725C815.994 114.847 821.428 108.02 823.159 105.43C838.619 85.7382 853.273 91.4203 872.346 88.6588L873.35 88.5058Z" fill="#3F4927"/>
<path d="M871.985 131.441C873.797 131.545 875.224 131.716 876.755 132.818C878.836 134.318 879.81 136.223 880.22 138.709C881.628 147.238 883.018 199.498 878.769 204.293C875.469 208.021 870.687 207.679 866.131 207.85C863.455 207.826 861.012 207.636 858.832 205.915C856.328 203.944 856.108 200.086 855.899 197.159C855.367 189.769 853.983 138.482 857.773 134.465C861.214 130.816 867.386 131.539 871.985 131.441Z" fill="#F6F0DF"/>
<path d="M898.216 170.72C900.243 173.249 899.367 189.499 899 193.345L898.118 192.665C897.622 188.416 898.124 175.588 898.216 170.72Z" fill="#707443"/>
<path d="M898.142 141.274C900.291 143.001 899.257 153.312 899.128 156.478C897.095 154.022 898.014 145.095 898.142 141.274Z" fill="#707443"/>
<path d="M859.004 236.145C862.402 235.759 870.374 234.944 873.27 236.488C869.211 237.712 863.1 237.155 859.004 236.145Z" fill="#707443"/>
<path d="M835.492 226.391C837.754 227.266 843.004 231.834 844.474 233.983C840.332 232.808 837.858 229.764 835.492 226.391Z" fill="#515939"/>
<path d="M894.897 211.959C893.979 216.967 891.364 218.902 887.513 221.719L887.409 220.972C890.286 217.812 892.283 215.351 894.897 211.959Z" fill="#818661"/>
<path d="M907.241 167.603C908.686 170.64 908.037 176.561 907.566 179.88C905.974 176.782 906.849 171.142 907.241 167.603Z" fill="#515939"/>
<path d="M830.504 182.825C832.35 185.532 831.821 190.663 831.662 193.975L830.914 193.608C830.269 191.336 830.492 185.519 830.504 182.825Z" fill="#707443"/>
<path d="M872.034 221.59L873.093 221.743C871.66 222.809 868.452 223.556 866.688 222.974C865.457 222.692 864.429 222.429 863.216 222.086C864.496 221.382 870.142 221.602 872.034 221.59Z" fill="#707443"/>
<path d="M831.492 127.209C832.62 129.793 831.424 135.194 831 138.2C829.752 135.31 830.328 130.112 831.492 127.209Z" fill="#818661"/>
<path d="M863.186 104.505C865.702 104.242 871.17 103.238 872.744 105.118C870.093 105.399 865.096 106.263 863.186 104.505Z" fill="#707443"/>
<path d="M862.182 118C866.082 117.731 869.738 117.388 873.466 118.588C870.227 119.066 864.962 119.678 862.182 118Z" fill="#515939"/>
<path d="M841.22 170.744C842.986 173.194 842.317 177.216 842.167 180.37L841.329 179.598C840.643 176.365 841.003 174.032 841.22 170.744Z" fill="#515939"/>
<path d="M899.036 109.453C902.777 111.081 903.567 111.908 905.539 115.484C902.367 114.118 901.026 112.184 899.036 109.453Z" fill="#515939"/>
<path d="M829.137 151.781C829.862 154.598 829.536 157.861 829.226 160.709C827.928 157.108 827.909 155.284 829.137 151.781Z" fill="#818661"/>
<path d="M841.05 133.914C842.365 136.7 841.821 138.905 840.94 141.74C840.158 138.886 840.454 136.743 841.05 133.914Z" fill="#515939"/>
<path d="M905.227 211.793C906.678 213.146 905.459 216.055 905.043 217.892C904.467 217.622 904.847 217.849 904.161 216.882L905.227 211.793Z" fill="#515939"/>
<path d="M842.531 125.477L842.986 125.893C843.059 127.846 841.889 129.285 840.861 131.232L840.33 130.779C840.685 128.385 841.308 127.644 842.531 125.477Z" fill="#515939"/>
<path d="M910.07 133.877C911.184 136.321 911.037 135.09 910.572 137.692C909.115 136.982 909.874 135.261 910.07 133.877Z" fill="#515939"/>
<path d="M747.857 86.6749C755.845 85.8115 775.117 86.0748 781.383 91.2672C780.519 90.5508 788.958 107.138 790.998 108.24C791.58 108.553 793.248 120.774 793.954 122.691C796.995 133.822 799.029 144.936 782.937 142.676C775.267 141.966 766.754 144.029 759.043 144.642C748.579 146.332 754.657 132.934 749.06 129.683C743.504 126.456 732.469 129.438 726.333 130.54C715.176 141.574 720 158.615 719.599 173.236C720.968 181.986 720.44 196.1 723.735 203.821C730.542 219.772 769.35 213.912 759.932 193.302C754.726 190.865 747.453 195.886 739.928 193.155C735.668 188.385 735.378 168.203 738.823 162.901C743.868 159.655 779.991 160.225 789.309 158.302C802.356 160.035 799.645 164.138 800.003 174.932C800.692 195.696 803.977 222.362 787.824 238.422C768.768 257.373 740.375 250.264 716.982 251.477L715.793 251.544C707.67 245.207 703.741 242.047 694.294 238.135C691.504 232.018 686.807 227.309 684.712 223.194C681.925 217.714 679.978 201.874 679.268 195.169C676.768 171.534 673.505 145.646 677.477 122.097C678.561 115.796 697.646 94.2736 703.831 92.5407C717.049 88.8424 733.956 88.4628 747.857 86.6749Z" fill="#3F4927"/>
<path d="M693.059 154.873C694.496 156.478 695.271 173.445 695.702 176.769C696.472 182.703 697.22 189.205 697.998 195.157L697.189 194.624C694.8 190.834 692.816 160.243 693.059 154.873Z" fill="#9EA27F"/>
<path d="M731.672 100.262C735.226 99.968 736.166 99.8578 739.651 100.415L739.329 100.905L736.892 101.254C733.604 101.682 732.247 101.995 728.901 101.401L729.079 100.856L731.672 100.262Z" fill="#707443"/>
<path d="M733.984 238.612C737.63 238.331 744.315 237.455 747.38 239.212C743.996 239.678 737.05 240.076 733.984 238.612Z" fill="#707443"/>
<path d="M737.338 113.616C739.365 113.298 740.299 112.918 742.126 113.806C741.066 114.994 740.269 114.62 738.115 114.81C735.788 115.08 734.434 115.435 732.186 114.755C733.798 113.629 735.077 113.873 737.338 113.616Z" fill="#707443"/>
<path d="M782.528 191.599C784.429 193.785 783.437 200.331 783.248 203.57C782.678 203.46 783.05 203.582 782.355 202.805C782.215 198.494 782.191 195.886 782.528 191.599Z" fill="#707443"/>
<path d="M762.197 176.769C766.224 176.396 768.18 176.316 772.238 176.445L772.908 177.327C770.806 178.147 764.379 177.884 762.197 176.769Z" fill="#707443"/>
<path d="M737.494 226.372C740.809 225.968 742.003 225.797 745.299 226.066L745.857 226.948C742.475 227.346 741.311 227.529 737.959 227.193L737.494 226.372Z" fill="#515939"/>
<path d="M706.005 146.258L706.662 146.84C707.365 148.934 707.043 151.726 706.959 154.004L706.265 153.41C705.439 151.004 705.835 148.842 706.005 146.258Z" fill="#515939"/>
<path d="M765.757 112.079C768.801 113.292 769.502 113.402 769.961 116.739L769.113 116.898L765.757 112.079Z" fill="#707443"/>
<path d="M698.255 114.498L698.68 114.878C698.331 116.5 696.844 117.682 695.563 119.152L694.828 118.374C695.201 116.623 696.774 115.723 698.255 114.498Z" fill="#707443"/>
<path d="M763.983 218.669L764.512 219.245C763.677 220.849 761.856 221.425 760.128 222.288L759.736 221.896C760.483 220.384 762.412 219.582 763.983 218.669Z" fill="#515939"/>
<path d="M687.007 187.105L687.438 186.989L688.04 187.417L688.43 191.599L687.797 191.263C686.837 189.671 687.008 188.96 687.007 187.105Z" fill="#515939"/>
<path d="M818.421 274.671C827.91 273.128 846.005 274.218 854.577 279.943C875.009 293.665 867.607 319.785 868.672 340.524C870.007 366.559 866.462 386.368 836.671 390.09C829.333 389.08 822.205 389.729 814.511 389.111C804.605 388.743 797.497 383.52 791.377 375.964C785.249 368.402 785.622 352.96 785.499 343.641C785.305 328.897 785.432 313.92 786.664 299.255C787.468 289.678 798.671 281.321 805.684 275.828L818.421 274.671Z" fill="#CF5B26"/>
<path d="M824.73 304.594C837.634 304.46 838.405 307.766 838.226 320.961C838.074 332.209 839.642 345.282 836.377 355.96C835.815 357.804 830.699 358.563 829.065 358.863C826.002 358.838 822.403 359.108 819.671 357.51C817.556 356.273 816.657 354.699 816.167 352.366C814.748 345.606 814.264 312.462 817.586 307.858C819.149 305.684 822.29 305.035 824.73 304.594Z" fill="#F6F0DF"/>
<path d="M823.374 286.384C826.517 285.937 830.189 285.117 832.91 286.727C829.62 287.303 826.449 287.799 823.374 286.384Z" fill="#D56835"/>
<path d="M849.997 363.761C850.095 364.416 849.911 364.931 849.776 365.647C848.099 367.968 847.315 368.188 844.755 369.694C844.657 367.992 848.674 364.955 849.997 363.761Z" fill="#D56835"/>
<path d="M724.803 273.556C729.834 272.981 744.872 273.722 749.575 275.24C756.135 277.359 766.126 285.227 769.202 291.662C772.87 299.341 773.033 313.583 770.347 321.622C766.829 332.154 760.488 336.085 751.484 340.647C757.012 350.119 761.897 359.873 768.021 369.107C769.642 371.427 770.878 374.47 772.52 376.73C774.419 379.35 778.653 381.12 778.177 384.984C778.172 386.171 777.943 387.445 776.548 388.082C771.253 390.488 764.417 389.086 758.806 389.527C754.542 389.858 752.054 391.052 747.989 390.556C743.639 388.033 736.303 372.952 733.448 367.759C729.257 361.881 725.484 354.393 721.989 347.939C720.044 346.91 721.094 347.149 718.675 347.517C711.965 352.697 719.738 379.363 715.453 387.329C713.77 390.464 708.795 388.945 706.017 388.933C700.219 388.896 692.134 392.882 687.166 388.915C686.404 387.647 685.788 386.239 685.839 384.72C686.169 374.801 686.074 364.888 686.131 354.944L686.05 321.298C686.003 317.201 685.207 312.113 685.379 308.256C685.835 299.408 686.071 291.362 684.513 282.618C683.989 279.147 686.097 275.399 689.761 275.026C701.199 273.869 713.352 273.465 724.803 273.556Z" fill="#CF5B26"/>
<path d="M723.967 301.006C733.199 300.167 736.586 301.294 739.442 310.111L739.213 310.785C737.188 316.651 736.476 317.667 731.008 320.349C726.867 321.463 720.594 321.573 716.329 321.512C716.169 314.942 716.304 308.544 716.419 301.98C718.789 301.594 721.552 301.312 723.967 301.006Z" fill="#F6F0DF"/>
<path d="M720.217 283.862C725.143 284.033 732.904 283.219 736.424 285.796C732.488 286.158 723.811 285.521 720.217 283.862Z" fill="#D56835"/>
<path d="M697.324 294.43L698.097 295.257C698.822 297.816 698.472 300.633 698.36 303.345L697.676 302.672C696.832 299.757 697.178 297.473 697.324 294.43Z" fill="#D56835"/>
<path d="M751.286 321.922L752.087 322.204C751.9 323.802 750.673 324.414 749.191 325.872L748.546 325.657C748.709 323.974 749.775 323.496 751.286 321.922Z" fill="#D56835"/>
<path d="M696.723 358.685L697.349 359.169C698.244 360.645 697.863 362.194 697.733 364.006C696.121 362.72 696.625 360.596 696.723 358.685Z" fill="#D56835"/>
<path d="M1100.4 276.624C1120.86 273.82 1141.89 280.102 1144.97 304.031C1145.16 309.633 1145.22 315.077 1145.05 320.747C1144.52 339.538 1149.95 364.208 1137.8 379.987C1128.11 392.582 1120.2 389.484 1107.26 390.935C1103.11 391.376 1090.04 390.635 1084.6 390.69C1059.64 377.967 1062.36 358.869 1063.12 334.989C1063.56 321.126 1060.38 300.871 1069.94 289.464C1080.06 277.377 1085.99 277.475 1100.4 276.624Z" fill="#CF5B26"/>
<path d="M1098.82 305.715C1104.75 305.488 1108.59 304.484 1113.09 308.231C1116.83 315.438 1115.95 345.588 1114.57 355.085C1114.19 357.754 1110.67 359.353 1108.35 360.436C1104.82 360.712 1095.14 361.416 1093.91 356.56C1090.38 342.655 1092.27 326.025 1093.26 311.801C1093.45 309.052 1096.8 306.994 1098.82 305.715Z" fill="#F6F0DF"/>
<path d="M1081.17 323.123C1082.59 325.743 1082.01 334.266 1080.85 337.175C1080.59 333.495 1080.32 326.558 1081.17 323.123Z" fill="#D56835"/>
<path d="M1098.99 379.424C1101.7 379.13 1105.49 378.469 1107.59 380.055C1105.11 380.33 1100.82 381.224 1098.99 379.424Z" fill="#D56835"/>
<path d="M1123.01 296.897C1125.91 297.908 1126.28 298.985 1127.85 301.649C1125.04 300.437 1124.73 299.524 1123.01 296.897Z" fill="#D56835"/>
<path d="M940.979 331.334C939.099 316.681 941.347 295.177 939.902 279.802C939.338 273.85 964.02 275.706 967.872 276.943C968.747 277.757 969.2 277.861 969.28 279.006C970.107 294.118 969.09 312.836 969.096 327.641C969.096 334.811 970.4 384.004 968.453 387.212C964.492 389.062 943.447 389.392 941.2 385.816C933.172 373.062 925.463 359.971 917.552 347.1C916.291 347.921 913.579 349.58 912.005 349.054C910.682 356.04 914.099 385.174 910.725 388.743C909.917 389.6 909.078 389.962 907.939 390.207C905.845 390.654 903.384 389.496 901.222 389.447C897.738 389.374 894.144 390.158 890.648 390.372C888.327 390.513 886.313 390.507 884.463 388.902C882.553 382.271 883.637 372.536 883.588 365.353L883.729 309.676C883.747 302.555 880.796 282.3 885.119 278.149C887.715 277.255 903.029 276.765 906.341 277.555C908.907 278.173 909.794 278.81 911.08 281.002C920.963 297.816 931.017 314.563 940.979 331.334Z" fill="#CF5B26"/>
<path d="M912.005 349.054C911.993 344.418 911.815 341.155 911.405 336.526L917.552 347.1C916.291 347.921 913.579 349.58 912.005 349.054Z" fill="#FAF5F0"/>
<path d="M895.332 311.036L895.956 311.685C896.661 315.53 896.526 318.304 895.473 322.069L895.136 321.91C894.799 317.679 895.026 315.261 895.332 311.036Z" fill="#D56835"/>
<path d="M894.456 339.104L895.044 339.581C895.926 341.118 895.626 343.255 895.595 345.141L894.897 344.615C893.966 343.053 894.358 341.045 894.456 339.104Z" fill="#D56835"/>
<path d="M951.933 301.08C953.176 303.725 952.631 305.88 952.264 308.758C951.168 305.77 951.596 304.27 951.933 301.08Z" fill="#D56835"/>
<path d="M630.817 274.634C634.465 273.869 644.921 275.246 650.724 275.044C659.562 280.794 666.785 286.311 672.042 295.514C671.897 304.753 674.312 313.124 671.5 322.21C670.585 325.161 669.974 329.313 669.369 332.417C666.467 335.718 658.848 342.092 655.267 345.257C644.875 347.272 625.3 350.578 614.907 351.037C615.049 359.512 614.177 378.891 615.231 385.541C613.622 387.616 611.874 389.306 609.131 389.208C602.816 388.988 586.056 392.295 581.594 388.927C580.362 378.389 581.106 367.551 581.275 356.971C581.482 343.941 581.214 330.929 581.456 317.893C581.594 310.484 581.779 302.941 581.665 295.532C581.607 291.748 580.965 287.682 581.196 283.935C581.281 282.563 581.671 281.725 582.505 280.684C585.861 276.502 622.744 275.804 629.82 274.781L630.817 274.634Z" fill="#CF5B26"/>
<path d="M624.768 302.212C626.777 301.882 630.249 301.931 632.397 301.894C643.026 307.797 641.911 319.345 629.803 322.847L614.428 324.31C613.902 317.624 614.286 310.178 614.354 303.376L624.768 302.212Z" fill="#F6F0DF"/>
<path d="M596.367 325.094C598.256 327.782 597.146 331.866 596.66 335.216L595.962 334.444C595.295 331.248 595.46 328.223 596.367 325.094Z" fill="#E18C5E"/>
<path d="M621.476 287.468C622.952 287.321 627.321 286.831 628.24 287.737L626.21 288.362C623.461 288.815 622.551 288.827 619.753 288.766L619.347 288.27L621.476 287.468Z" fill="#D56835"/>
<path d="M655.633 304.159C656.76 306.719 656.242 308.188 655.542 310.785C654.536 308.152 654.978 306.817 655.633 304.159Z" fill="#D56835"/>
<path d="M1016.49 275.902C1021.61 275.216 1028.92 276.502 1034.61 276.367C1040.52 276.232 1051.32 275.044 1056.67 277.757C1059.7 279.857 1056.91 289.434 1057.34 291.779C1059.52 303.4 1057.58 305.984 1045.89 305.47C1043.09 305.347 1037.44 305.568 1034.08 305.647L1034.01 359.916C1034.05 368.158 1034.53 376.387 1034.32 384.616C1034.15 390.874 1027.89 389.349 1023.75 388.768C1019.05 389.196 1009.53 390.133 1005.52 388.247C1003.34 384.873 1004.88 369.884 1004.56 364.912C1003.3 345.349 1004.35 325.186 1003.61 305.666C998.107 305.519 984.563 306.07 980.828 304.012C978.636 300.975 979.156 278.786 981.679 277.567C985.794 275.583 1010.21 276.508 1015.69 275.987L1016.49 275.902Z" fill="#CF5B26"/>
<path d="M1015.55 354.919L1016.42 355.605C1017.03 357.442 1016.64 361.257 1016.54 363.369L1016.04 363.271C1015.21 361.649 1015.53 357.007 1015.55 354.919Z" fill="#D56835"/>
<path d="M1022.4 329.276C1024.26 330.721 1023.64 333.054 1023.56 335.326L1022.89 334.811C1021.94 333.256 1022.32 331.223 1022.4 329.276Z" fill="#D56835"/>
<path d="M224.371 137.734C233.847 136.827 245.174 140.342 251.666 147.023C262.827 158.499 260.17 176.801 260.385 191.145C260.522 200.225 260.141 209.387 259.784 218.449C258.68 242.081 258.739 265.979 257.523 289.572C251.578 294.896 242.097 297.973 239.997 306.476C234.36 329.323 244.124 359.019 254.562 379.037C253.502 387.104 254.567 425.779 251.041 430.049C247.9 433.86 238.986 432.145 234.472 432.26C231.634 432.329 228.816 432.757 225.978 432.931C220.551 433.258 215.133 432.32 209.714 432.155C205.537 432.026 201.145 432.614 197.015 432.063C195.745 431.893 194.864 431.594 193.917 430.748C192.587 429.562 191.856 428.123 191.568 426.432C190.776 421.78 191.24 416.333 191.001 411.562C190.306 397.722 189.46 383.716 189.44 369.866C171.133 366.621 161.809 363.794 146.461 354.146C140.796 350.248 135.851 346.171 132.038 340.579C127.666 334.106 124.569 326.945 122.896 319.438C119.723 305.38 118.443 257.636 121.849 243.607C123.508 236.774 126.837 229.949 133.506 226.247C138.772 223.325 147.098 222.5 152.959 224.104C170.347 228.863 170.957 245.077 171.23 259.04C171.518 273.751 169.255 294.954 171.475 308.623C171.963 311.633 172.913 314.519 174.485 317.189C178.009 323.174 183.141 325.555 189.784 327.482C189.172 303.497 190.681 277.898 190.173 253.76C189.535 234.926 189.669 216.097 189.801 197.285C189.993 170.047 187.664 141.53 224.371 137.734Z" fill="#707443"/>
<path d="M213.972 166.825C214.177 167.046 214.382 167.267 214.587 167.489C213.808 173.102 213.201 178.86 213.241 184.519C213.371 203.226 213.71 222.078 212.6 240.751C212.334 245.223 212.272 249.716 212.18 254.195L211.626 254.7C209.997 249.913 211.095 218.332 211.159 211.287C211.25 201.212 210.901 175.479 213.972 166.825Z" fill="#F6F0DF"/>
<path d="M211.622 267.975C212.297 272.582 212.275 280.539 212.336 285.278C212.462 297.654 212.235 310.03 211.654 322.394L211.14 321.649C210.685 315.391 210.467 272.03 211.622 267.975Z" fill="#F6F0DF"/>
<path d="M211.652 370.57C212.328 371.783 212.657 410.243 212.685 414.876C209.377 410.045 211.619 378.113 211.652 370.57Z" fill="#CBCDAD"/>
<path d="M136.908 288.259C139.196 290.392 138.465 306.458 139.306 309.598C140.65 314.61 142.86 320.218 144.48 325.198C138.372 320.338 136.362 295.235 136.908 288.259Z" fill="#F6F0DF"/>
<path d="M233.109 370.961C233.144 370.988 233.178 371.011 233.202 371.039C234.829 372.795 234.047 407.614 233.603 412.077L233.002 411.907C232.553 407.623 232.768 400.76 232.811 396.32L233.109 370.961Z" fill="#9EA27F"/>
<path d="M138.13 249.979C138.434 250.753 137.647 281.358 137.409 284.616C135.618 280.831 136.409 254.774 138.13 249.979Z" fill="#CBCDAD"/>
<path d="M235.703 169.515C237.76 173.588 236.597 189.473 236.289 194.675L235.625 194.327C235.107 190.108 235.786 174.881 235.703 169.515Z" fill="#9EA27F"/>
<path d="M223.213 324.932C224.205 327.756 224.366 344.42 223.892 347.587C222.124 344.071 222.896 329.252 223.213 324.932Z" fill="#9EA27F"/>
<path d="M231.688 273.57L231.981 273.853C233.193 277.844 232.089 288.552 231.747 293.019C230.174 291.72 231.6 276.506 231.688 273.57Z" fill="#9EA27F"/>
<path d="M162.212 332.8C165.307 333.758 170.261 337.805 172.993 339.892C169.818 339.42 164.181 335.139 162.212 332.8Z" fill="#9EA27F"/>
<path d="M233.417 241.227C235.112 243.408 234.252 248.655 233.847 251.299L233.095 250.565C232.792 247.851 233.207 244.062 233.417 241.227Z" fill="#CBCDAD"/>
<path d="M205.602 345.62C206.971 347.279 206.824 354.597 206.884 356.918L206.229 356.293C205.358 352.469 205.422 349.462 205.602 345.62Z" fill="#9EA27F"/>
<path d="M212.141 333.781L212.503 334.141C213.23 337.057 212.924 341.509 212.686 344.526C211.13 343.292 212 335.744 212.141 333.781Z" fill="#9EA27F"/>
<path d="M201.833 252.696L202.633 253.452C202.923 256.186 202.553 259.182 202.34 261.952C200.843 261.239 201.732 254.205 201.833 252.696Z" fill="#818661"/>
<path d="M198.779 304.244L199.482 304.927C199.989 307.457 199.679 309.393 199.453 311.932C197.768 309.458 198.442 307.151 198.779 304.244Z" fill="#9EA27F"/>
<path d="M198.364 376.444C199.127 377.566 199.262 382.613 199.408 384.346C198.997 384.093 198.565 383.688 198.184 383.371C197.756 381.045 198.136 378.816 198.364 376.444Z" fill="#818661"/>
<path d="M136.047 234.534L136.237 234.674C136.162 236 133.734 238.962 132.767 240.35L132.242 239.846C132.796 237.56 134.233 236.038 136.047 234.534Z" fill="#CBCDAD"/>
<path d="M249.097 185.652C250.582 187.526 249.859 191.168 249.483 193.37C248.139 191.964 248.931 187.557 249.097 185.652Z" fill="#818661"/>
<path d="M152.592 342.915C154.81 343.089 158.441 346.213 160.262 347.67C156.75 346.677 155.173 345.339 152.592 342.915Z" fill="#CBCDAD"/>
<path d="M199.398 206.353C200.219 208.804 199.952 212.524 199.468 215.033C198.576 211.794 198.652 209.6 199.398 206.353Z" fill="#818661"/>
<path d="M191.583 348.295C194.846 348.005 197.198 347.789 200.368 348.865C197.116 349.609 194.794 349.108 191.583 348.295Z" fill="#9EA27F"/>
<path d="M168.703 351.719C171.204 352.22 174.086 353.457 176.121 354.905C172.612 354.381 171.376 353.926 168.703 351.719Z" fill="#9EA27F"/>
<path d="M129.465 250.459L130.103 251.02C130.607 253.222 130.285 254.94 130.087 257.19L129.584 256.764C129.004 254.884 129.345 252.483 129.465 250.459Z" fill="#818661"/>
<path d="M203.611 408.092C204.621 410.073 204.275 413.07 203.917 415.212C202.882 412.458 202.856 410.951 203.611 408.092Z" fill="#9EA27F"/>
<path d="M199.874 260.965L200.479 261.152C200.841 261.965 201.081 262.638 201.388 263.469L201.755 262.938L201.753 264.035L200.856 264.956L200.127 264.936C199.461 263.333 199.687 262.667 199.874 260.965Z" fill="#818661"/>
<path d="M221.259 259.637L221.851 260.104C222.437 261.685 222.178 263.814 222.114 265.544L221.474 265.058C220.864 263.475 221.172 261.377 221.259 259.637Z" fill="#818661"/>
<path d="M203.264 280.725L203.999 280.665C204.565 282.726 204.456 283.507 204.443 285.679C203.193 284.349 203.469 282.833 203.264 280.725Z" fill="#818661"/>
<path d="M132.466 325.295C134.532 326.353 134.637 327.356 135.361 329.456C133.531 328.575 133.302 327.198 132.466 325.295Z" fill="#818661"/>
<path d="M201.774 161.385C201.997 163.099 201.381 164.189 200.76 165.833L200.35 164.994C200.493 163.112 200.642 163.024 201.774 161.385Z" fill="#9EA27F"/>
<path d="M246.796 216.98L247.182 217.294C247.836 218.932 247.597 220.975 247.558 222.773C246.781 221.076 246.859 218.845 246.796 216.98Z" fill="#818661"/>
<path d="M248.794 161.171C250.171 163.027 249.971 163.348 250.122 165.796C248.769 164.4 248.97 163.143 248.794 161.171Z" fill="#818661"/>
<path d="M223.433 94.5344C228.113 94.0885 233.862 95.0147 238.585 95.4348C261.137 97.4426 282.644 104.195 301.728 115.898C336.213 136.933 360.23 170.158 368.363 208.066C332.422 216.798 297.826 260.67 272.563 285.07C272.621 263.543 275.776 229.426 276.353 207.907C276.611 192.508 277.105 178.343 274.907 162.62C269.563 124.392 220.683 112.99 190.727 134.252C177.9 143.356 172.19 159.455 170.686 174.435C169.282 188.368 169.611 201.766 169.439 215.696C165.419 212.611 160.782 210.314 155.804 208.941C152.778 208.112 148.492 207.328 145.409 207.374C101.381 208.48 101.48 255.585 102.892 285.905C104.113 312.125 106.694 326.086 120.655 349.315C105.21 334.92 96.0187 319.889 87.9513 301.25C53.0643 220.65 104.883 118.146 196.281 98.1611C205.482 96.1492 214.002 95.3723 223.433 94.5344Z" fill="#CF5B26"/>
<path d="M249.316 113.326C253.488 113.536 270.848 117.279 273.192 120.518C272.362 120.459 250.567 113.904 249.316 113.326Z" fill="#E18C5E"/>
<path d="M321.173 143.052C325.047 144.32 331.49 153.142 333.302 156.539C331.968 155.709 321.882 144.448 321.173 143.052Z" fill="#E18C5E"/>
<path d="M290.269 128.791C294.631 129.907 302.475 135.988 305.513 139.52C304.121 139.227 291.524 130.113 290.269 128.791Z" fill="#E18C5E"/>
<path d="M194.736 110.146L195.028 110.347C193.995 111.257 183.218 114.605 180.763 115.428L180.353 115.001C181.85 113 191.907 110.64 194.736 110.146Z" fill="#D56835"/>
<path d="M120.62 157.905C120.229 159.983 113.523 167.366 111.765 169.342L111.574 168.859C111.994 166.565 118.618 159.494 120.62 157.905Z" fill="#E18C5E"/>
<path d="M135.763 169.557L136.38 169.941C135.361 172.028 130.917 177.421 129.264 179.535L128.573 179.549C128.574 177.623 134.119 171.512 135.763 169.557Z" fill="#E18C5E"/>
<path d="M98.8605 220.239L99.7954 221.018C98.8859 224.895 98.1684 228.504 97.1675 232.48L96.8832 232.534C97.041 228.126 97.9403 224.532 98.8605 220.239Z" fill="#EFBA96"/>
<path d="M144.78 137.056C145.017 139.198 138.047 144.098 136.221 145.415C135.624 143.951 143.328 138.245 144.78 137.056Z" fill="#D56835"/>
<path d="M306.334 129.222C308.512 129.669 313.807 134.809 315.097 136.673C312.865 136.21 307.457 131.24 306.334 129.222Z" fill="#D56835"/>
<path d="M322.473 178.208C325.75 179.397 327.382 185.53 328.51 188.584C326.458 186.621 323.879 180.948 322.473 178.208Z" fill="#E18C5E"/>
<path d="M342.074 182.738L342.363 182.68C342.89 183.117 346.729 193.574 347.218 195.148C344.663 193.604 342.919 185.796 342.074 182.738Z" fill="#D56835"/>
<path d="M313.842 153.085C316.679 154.031 320.695 159.296 321.803 161.923C319.278 159.629 315.673 155.866 313.842 153.085Z" fill="#E18C5E"/>
<path d="M132.826 156.214L133.466 156.614C132.55 158.407 128.864 162.431 127.345 164.188L126.748 164.041C127.074 162.286 131.371 157.824 132.826 156.214Z" fill="#E18C5E"/>
<path d="M98.8556 197.595L99.2674 197.958C99.3348 199.642 96.5032 206.745 95.7466 208.839L95.6807 208.833L95.2772 208.355C95.9469 204.873 97.5725 200.984 98.8556 197.595Z" fill="#D56835"/>
<path d="M288.056 140.613C290.728 141.133 295.422 144.859 297.263 146.835C293.873 145.994 290.567 142.861 288.056 140.613Z" fill="#D56835"/>
<path d="M86.9812 248.632C87.8468 251.365 87.3359 257.07 87.1053 260.039C86.1689 257.561 85.8275 251.177 86.9812 248.632Z" fill="#E18C5E"/>
<path d="M341.679 166.858C343.921 168.037 346.348 173.161 347.291 175.418C345.049 174.387 342.533 169.013 341.679 166.858Z" fill="#E18C5E"/>
<path d="M261.894 126.016C263.814 126.626 268.791 128.696 269.573 130.543L268.596 130.741C265.787 128.985 264.434 128.134 261.894 126.016Z" fill="#E18C5E"/>
<path d="M351.912 188.808L353.06 189.26C355.062 191.965 355.634 194.686 356.44 197.835C354.96 195.151 352.83 191.598 351.912 188.808Z" fill="#E18C5E"/>
<path d="M151.772 150.435L152.06 150.769C150.587 152.69 147.52 155.214 145.573 156.935L145.239 156.618C145.62 154.774 150.085 151.703 151.772 150.435Z" fill="#EFBA96"/>
<path d="M338.909 195.256C339.857 196.085 340.282 196.552 340.272 197.686C338.518 197.853 338.963 197.489 337.996 198.315L338.582 200.434C338.909 200.996 338.807 200.657 338.699 201.483C336.301 199.37 337.097 197.26 338.909 195.256Z" fill="#E18C5E"/>
<path d="M287.856 232.604C289.336 233.856 288.491 239.176 288.276 241.086C287.802 241.013 288.129 241.098 287.47 240.512C287.348 237.605 287.582 235.497 287.856 232.604Z" fill="#E18C5E"/>
<path d="M92.8417 293.755C94.2153 294.761 95.9908 300.589 96.3728 302.27C94.2148 300.392 93.2872 296.403 92.8417 293.755Z" fill="#E18C5E"/>
<path d="M296.785 160.774C299.378 161.67 301.537 165.199 302.47 167.509C300.267 166.132 298.299 162.928 296.785 160.774Z" fill="#D56835"/>
<path d="M87.9113 271.104L88.56 270.959C89.3136 272.82 89.719 276.769 89.7005 278.792C88.5526 276.627 88.0295 273.494 87.9113 271.104Z" fill="#E18C5E"/>
<path d="M103.104 189.484C103.348 191.228 100.814 195.238 99.8492 196.972C99.3812 194.676 101.535 191.18 103.104 189.484Z" fill="#E18C5E"/>
<path d="M96.8241 186.584C97.3546 188.556 95.2083 192.206 94.2534 194.267L93.9823 193.48C94.3579 191.199 95.498 188.522 96.8241 186.584Z" fill="#D56835"/>
<path d="M290.606 119.097C293.214 119.153 295.603 120.548 297.258 122.369C294.333 121.669 292.76 121.077 290.606 119.097Z" fill="#D56835"/>
<path d="M333.424 165.967C335.226 167.179 336.907 170.295 337.761 172.193C335.285 170.942 334.181 168.381 333.424 165.967Z" fill="#EFBA96"/>
<path d="M168.515 127.559L168.813 127.94C168.086 129.119 165.369 130.325 163.964 131.078C163.649 130.819 163.832 131.018 163.678 130.338C165.289 128.907 166.553 128.466 168.515 127.559Z" fill="#E18C5E"/>
<path d="M311.99 206.38C313.446 207.855 313.851 210.124 314.408 212.091C312.132 210.375 311.819 208.947 311.99 206.38Z" fill="#D56835"/>
<path d="M310.852 176.545C312.806 178.046 313.592 179.628 314.369 181.8C312.567 180.78 311.062 178.499 310.852 176.545Z" fill="#D56835"/>
<path d="M91.9166 223.393L92.3694 223.829C92.5931 225.425 91.8575 227.563 91.4374 229.194L91.1839 229.123L90.7966 228.36C91.0975 226.106 91.1268 225.49 91.9166 223.393Z" fill="#E18C5E"/>
<path d="M118.341 195.362C118.589 197.264 117.228 198.875 116.157 200.546L115.912 199.397C116.53 197.262 116.791 197.123 118.341 195.362Z" fill="#E18C5E"/>
<path d="M90.9705 204.15L91.2069 204.318C91.5977 205.762 90.7912 208.608 90.4659 210.274L90.1167 210.218C89.4265 208.432 90.3413 206.017 90.9705 204.15Z" fill="#D56835"/>
<path d="M158.05 146.276L158.417 146.709C157.548 148.17 156.429 148.659 154.933 149.596L154.521 149.188C155.277 147.752 156.495 147.299 158.05 146.276Z" fill="#E18C5E"/>
<path d="M114.058 178.466C113.951 180.181 112.158 182.23 111.072 183.607C110.719 181.412 112.562 179.901 114.058 178.466Z" fill="#D56835"/>
<path d="M287.543 196.642C288.94 198.141 288.618 200.503 288.632 202.555C287.094 201.11 287.519 198.628 287.543 196.642Z" fill="#D56835"/>
<path d="M270.848 110.528C273.265 111.062 274.194 111.665 275.996 113.204C273.593 112.783 272.162 112.598 270.848 110.528Z" fill="#D56835"/>
<path d="M324.754 200.906C326.327 201.669 326.81 202.915 326.991 204.492L326.493 204.593C325.457 203.655 325.203 202.253 324.754 200.906Z" fill="#E18C5E"/>
<path d="M98.8605 220.239C99.3504 218.672 99.3407 217.889 100.423 216.787C100.387 218.608 100.211 219.211 99.7954 221.018L98.8605 220.239Z" fill="#E18C5E"/>
<path d="M354.666 222.386C379.695 208.873 384.659 231.631 379.695 239.889C365.623 263.289 347.512 284.148 329.924 305.244C316.543 321.627 302.726 337.696 288.497 353.436C281.511 361.021 256.845 387.857 246.715 374.403C239.013 361.988 223.773 326.528 218.727 313.221C200.368 264.801 247.134 267.998 255.911 283.568C264.585 298.957 264.061 307.757 270.569 305.244C283.282 300.336 320.681 243.406 354.666 222.386Z" fill="#3F4927"/>
<path d="M340.042 259.304L340.062 260.363C337.454 263.412 334.445 266.113 331.236 268.595C331.24 266.699 338.318 260.726 340.042 259.304Z" fill="#707443"/>
<path d="M307.384 292.892C307.199 295.374 303.262 298.58 301.259 300.535C300.814 298.449 305.841 294.355 307.384 292.892Z" fill="#707443"/>
<path d="M327.88 271.262C328.202 272.687 323.044 277.497 321.779 278.846L321.642 278.341C322.355 276.445 326.209 272.664 327.88 271.262Z" fill="#515939"/>
<path d="M299.481 282.655L300.067 282.857C299.73 284.175 298.421 285.035 297.258 286.141L296.575 286.069C296.829 284.854 298.46 283.613 299.481 282.655Z" fill="#515939"/>
<path d="M294.738 367.793C306.583 368.984 317.779 369.044 329.306 370.101C359.063 372.68 388.517 377.717 417.331 385.159C421.478 386.23 437.065 389.6 436.962 393.737C434.197 396.223 420.833 394.371 414.977 394.343L365.276 393.58C354.935 393.401 278.184 393.805 276.02 392.721C274.321 390.404 275.156 387.825 275.581 385.026C282.668 378.816 287.983 374.688 294.738 367.793Z" fill="#707443"/>
<path d="M335.221 379.515C338.68 379.037 358.237 380.811 361.574 381.859C357.002 381.946 338.807 381.11 335.221 379.515Z" fill="#818661"/>
<path d="M311.595 385.063C314.569 384.695 332.623 384.847 334.02 385.964C331.875 386.552 314.242 385.844 311.595 385.063Z" fill="#818661"/>
<path d="M296.746 385.072C299.994 384.603 304.453 384.621 307.628 385.518C304.39 385.812 299.461 386.639 296.746 385.072Z" fill="#818661"/>
<path d="M360.284 387.366C363.298 386.865 365.75 387.219 368.676 387.904C365.652 388.184 362.936 388.676 360.284 387.366Z" fill="#818661"/>
<path d="M378.328 384.102C381.17 383.849 383.666 384.166 386.319 385.132C383.144 385.467 381.302 385.219 378.328 384.102Z" fill="#818661"/>
<path d="M135.039 369.848C135.697 369.729 138.876 369.641 139.725 369.604C148.738 375.626 157.03 377.731 167.06 381.565C168.772 382.218 171.11 393.015 164.708 393.396C128.913 395.543 92.9814 394.66 57.1863 396.89C51.3185 397.257 45.6754 397.29 39.8212 398.007C34.3818 398.779 12.1961 400.673 7.33397 399.009L7.1254 397.713C14.7995 391.659 86.2007 376.38 100.723 373.911C107.494 372.762 126.947 370.809 135.039 369.848Z" fill="#707443"/>
<path d="M114.02 379.997C115.318 379.832 115.339 379.878 116.653 380.071L116.429 380.388C109.702 381.179 102.319 382.824 95.7647 383.206C94.8288 383.403 94.0136 383.293 93.0337 383.266L93.0357 382.944C97.6257 381.505 108.659 380.577 114.02 379.997Z" fill="#818661"/>
<path d="M73.0548 386.897C74.7727 386.722 77.0685 386.906 78.8387 386.989C73.1198 387.825 67.9095 388.694 62.1232 389.259C61.7954 389.333 58.8554 389.54 58.3528 389.581L58.3337 389.338C63.8 388 67.4259 387.458 73.0548 386.897Z" fill="#818661"/>
<path d="M131.03 386.019C133.457 385.72 134.033 385.711 136.473 385.913L136.635 386.189C132.316 386.943 129.688 387.026 125.25 387.196C123.608 387.274 122.181 387.168 120.549 387.085L120.344 386.814C124.204 386.23 127.457 386.502 131.03 386.019Z" fill="#818661"/>
<path d="M43.831 392.422L44.5856 392.381L44.6189 392.836C41.3374 393.695 39.9258 393.833 36.5627 394.187C36.0298 393.943 36.2648 394.137 35.9478 393.525C38.3647 392.758 41.247 392.652 43.831 392.422Z" fill="#818661"/>
<path d="M127.495 376.66C129.449 376.582 129.435 376.274 130.768 377.074C129.738 377.892 130.333 377.566 128.489 377.52C127.148 377.58 125.885 377.589 124.547 377.593C125.155 376.959 126.389 376.904 127.495 376.66Z" fill="#818661"/>
<path d="M287.9 402.525C289.907 401.914 294.709 402.796 297.161 402.75C301.943 402.654 306.505 402.194 311.302 402.346C335.173 403.215 358.97 405.347 382.582 408.74C386.172 409.232 395.453 409.503 396.708 412.812L395.966 413.98C393.211 415.782 378.948 416.834 374.542 417.349C359.419 418.921 283.02 427.609 274.032 424.74C270.916 421.95 273.466 413.221 273.642 409.48C274.067 400.622 281.169 403.049 287.9 402.525Z" fill="#707443"/>
<path d="M312.195 411.282C315.458 410.951 324.036 410.376 326.942 411.695C322.858 412.003 316.035 412.532 312.195 411.282Z" fill="#9EA27F"/>
<path d="M297.229 408.988C300.448 408.602 302.92 408.17 305.889 409.425C302.954 409.659 299.891 410.105 297.229 408.988Z" fill="#707443"/>
<path d="M228.777 0.307308C231.395 -0.404242 240.764 0.118853 243.152 1.88716C243.548 3.37783 243.562 5.63015 243.387 7.16127C241.569 22.8278 239.953 38.3146 237.559 53.9328C236.875 59.7222 236.744 65.6757 235.312 71.3621C234.35 75.169 227.907 74.2929 224.952 73.5004C221.216 74.6045 216.807 76.0102 216.274 70.6974C215.429 62.2843 207.014 6.81146 210.172 2.38495C213.028 1.01472 224.068 0.839591 228.777 0.307308Z" fill="#CF5B26"/>
<path d="M222.046 22.6278C223.067 24.842 222.696 30.459 222.564 32.9168C220.962 29.969 221.67 25.8583 222.046 22.6278Z" fill="#E18C5E"/>
<path d="M130.863 23.9337C130.996 23.9272 131.129 23.9203 131.262 23.9139C132.364 23.6974 134.842 24.4513 135.329 25.4377C138.57 32.0048 161.059 81.9163 161.034 85.8739C159.667 88.266 148.79 93.9133 146.284 93.5355C144.431 92.5858 144.237 91.9897 143.034 90.2512C131.281 74.0318 120.079 57.1357 107.897 41.1387C104.457 36.6207 127.116 26.0279 130.863 23.9337Z" fill="#CF5B26"/>
<path d="M159.862 403.031C162.598 402.792 165.938 402.249 168.357 403.399C171.483 407.186 172.888 421.854 169.623 425.871C166.533 427.581 138.069 425.196 133.147 424.345C129.684 423.784 124.441 424.616 121.163 424.056C109.047 421.992 95.0867 423.329 83.2006 421.187C78.9774 421.072 68.0052 421.688 65.5185 418.576L65.9781 417.542C75.9871 410.224 116.307 407.563 129.796 404.902C138.143 403.256 150.968 403.389 159.862 403.031Z" fill="#707443"/>
<path d="M128.187 413.598L128.475 413.718L128.331 414.168C125.166 415.069 117.299 415.249 113.934 415.143L113.623 415.023L113.885 414.587C117.539 413.929 124.265 413.787 128.187 413.598Z" fill="#818661"/>
<path d="M152.665 411.236C154.436 410.987 155.735 411.056 157.531 411.079L157.399 411.475C155.915 412.316 151.344 412.491 149.497 412.587C148.073 412.822 146.349 412.743 144.879 412.739L144.71 412.514C147.573 411.433 149.631 411.438 152.665 411.236Z" fill="#818661"/>
<path d="M326.668 27.5402C330.542 27.696 350.105 37.2426 351.858 40.4496C351.16 44.0465 319.405 82.2293 314.848 88.477C313.158 91.1448 311.668 94.5141 308.107 94.6594C305.548 93.3902 296.848 89.1715 295.925 86.984C297.117 81.2838 323.044 30.5206 326.668 27.5402Z" fill="#CF5B26"/>
<path d="M46.9971 93.7722C52.1157 93.8058 53.4765 96.7283 57.0843 99.7533C70.4143 110.931 84.6923 121.017 97.992 132.212C99.9356 133.847 91.5747 145.415 89.5515 146.62C88.3318 147.337 86.1778 146.381 85.026 145.844L49.3036 127.667C46.876 126.456 30.6041 119.513 31.4105 117.605C33.716 112.151 42.6821 97.1953 46.9971 93.7722Z" fill="#CF5B26"/>
<path d="M406.468 94.3041C411.284 94.4434 412.256 98.84 414.781 102.124C417.238 105.323 422.079 111.516 422.45 115.403C420.96 117.671 375.783 141.184 369.887 144.482C360.504 150.706 361.53 143.937 358.203 138.511C356.928 137.908 356.64 137.704 355.478 136.905C354.901 135.761 354.501 135.185 354.887 133.871C356.186 129.431 399.839 98.6874 406.468 94.3041Z" fill="#CF5B26"/>
<path d="M382.988 126.428L383.53 126.542L383.476 127.201C381.615 128.713 378.953 129.843 376.725 130.93L376.076 130.709C377.16 129.297 381.17 127.406 382.988 126.428Z" fill="#D56835"/>
<path d="M4.66994 189.463C9.17058 190.052 61.5698 198.723 62.6776 199.467C63.2398 199.845 63.3766 200.97 63.442 201.597C63.6858 203.928 62.8774 211.632 61.1541 213.265C59.4552 214.875 56.907 214.575 54.6801 214.58C49.2572 214.048 46.2347 214.694 40.9891 214.98C32.5857 215.381 24.1891 215.904 15.8023 216.549C10.9695 216.94 5.7465 218.002 0.9606 217.432C-0.616139 215.219 0.114576 204.355 0.589845 201.398C1.44855 196.054 0.434041 192.756 4.66994 189.463Z" fill="#CF5B26"/>
<path d="M444.562 186.75L447.122 186.759C448.201 187.269 449.227 187.954 449.525 189.092C450.947 194.597 454.512 208.429 452.304 213.273C448.905 214.515 433.821 213.358 429.264 213.576C419.241 214.057 408.568 213.977 398.584 214.63C395.321 214.968 391.663 216.054 389.45 213.515C388.854 210.481 387.55 204.485 388.053 201.538C392.307 198.69 435.541 189.54 444.562 186.75Z" fill="#CF5B26"/>
<path d="M358.228 289.262C358.11 290.957 354.393 297.283 353.451 299.15C342.773 320.282 327.455 338.164 307.609 352.335C307.54 351.172 353.792 294.599 358.228 289.262Z" fill="#D56835"/>
</svg>
